<svg xmlns="http://www.w3.org/2000/svg" version="1.1" width="559px" height="527px" style="shape-rendering:geometricPrecision; text-rendering:geometricPrecision; image-rendering:optimizeQuality; fill-rule:evenodd; clip-rule:evenodd"
    xmlns:xlink="http://www.w3.org/1999/xlink">
    <g>
        <path style="opacity:1" fill="#939393" d="M 57.5,0.5 C 205.834,0.333334 354.167,0.500001 502.5,1C 531.528,6.02554 549.695,22.8589 557,51.5C 557.5,189.833 557.667,328.166 557.5,466.5C 553.445,499.389 535.111,518.889 502.5,525C 355.167,525.5 207.834,525.667 60.5,525.5C 25.1323,521.326 4.79897,501.659 -0.5,466.5C -0.5,329.5 -0.5,192.5 -0.5,55.5C 5.80316,23.5323 25.1365,5.19901 57.5,0.5 Z"/>
    </g>
    <g>
        <path style="opacity:1" fill="#d5d5d5" d="M 544.5,29.5 C 456.169,30.8333 367.503,31.5 278.5,31.5C 189.666,31.5 100.999,31.1667 12.5,30.5C 21.4257,16.5186 34.0924,7.68525 50.5,4C 202.167,3.33333 353.833,3.33333 505.5,4C 522.178,6.9976 535.178,15.4976 544.5,29.5 Z"/>
    </g>
    <g>
        <path style="opacity:1" fill="#d2d2d2" d="M 544.5,29.5 C 550.32,37.4926 553.654,46.4926 554.5,56.5C 554.5,67.8333 554.5,79.1667 554.5,90.5C 539.5,90.5 524.5,90.5 509.5,90.5C 509.5,113.833 509.5,137.167 509.5,160.5C 509.5,180.5 509.5,200.5 509.5,220.5C 509.5,240.167 509.5,259.833 509.5,279.5C 509.5,299.5 509.5,319.5 509.5,339.5C 509.5,362.833 509.5,386.167 509.5,409.5C 509.818,414.032 509.485,418.366 508.5,422.5C 508.667,307.5 508.5,192.5 508,77.5C 501.737,53.9032 486.57,40.0699 462.5,36C 337.833,35.3333 213.167,35.3333 88.5,36C 69.2447,40.2591 55.7447,51.4257 48,69.5C 45.5366,76.2807 44.3699,83.2807 44.5,90.5C 30.8333,90.5 17.1667,90.5 3.5,90.5C 3.5,78.8333 3.5,67.1667 3.5,55.5C 3.99017,46.201 6.99017,37.8677 12.5,30.5C 100.999,31.1667 189.666,31.5 278.5,31.5C 367.503,31.5 456.169,30.8333 544.5,29.5 Z"/>
    </g>
    <g>
        <path style="opacity:1" fill="#f1f1f1" d="M 508.5,422.5 C 508.075,442.702 499.408,458.035 482.5,468.5C 476.049,471.281 469.382,473.447 462.5,475C 338.5,475.667 214.5,475.667 90.5,475C 83.8294,473.721 77.4961,471.555 71.5,468.5C 58.6953,460.511 50.1953,449.178 46,434.5C 44.8162,426.208 44.3162,417.875 44.5,409.5C 44.5,386.167 44.5,362.833 44.5,339.5C 44.5,319.5 44.5,299.5 44.5,279.5C 44.5,259.833 44.5,240.167 44.5,220.5C 44.5,200.5 44.5,180.5 44.5,160.5C 44.5,137.167 44.5,113.833 44.5,90.5C 44.3699,83.2807 45.5366,76.2807 48,69.5C 55.7447,51.4257 69.2447,40.2591 88.5,36C 213.167,35.3333 337.833,35.3333 462.5,36C 486.57,40.0699 501.737,53.9032 508,77.5C 508.5,192.5 508.667,307.5 508.5,422.5 Z"/>
    </g>
    <g>
        <path style="opacity:1" fill="#e3e3e3" d="M 91.5,38.5 C 215.5,37.1667 339.5,37.1667 463.5,38.5C 450.833,38.5 438.167,38.5 425.5,38.5C 401.833,38.5 378.167,38.5 354.5,38.5C 354.5,183.167 354.5,327.833 354.5,472.5C 306.5,472.5 258.5,472.5 210.5,472.5C 209.841,443.481 210.508,414.814 212.5,386.5C 227.45,393.773 241.783,392.606 255.5,383C 267.832,370.18 271.999,355.013 268,337.5C 259.714,315.271 243.881,306.438 220.5,311C 217.194,311.986 214.194,313.486 211.5,315.5C 210.502,279.671 210.168,243.671 210.5,207.5C 221.11,207.98 229.943,204.313 237,196.5C 237.498,199.482 237.665,202.482 237.5,205.5C 243.167,205.5 248.833,205.5 254.5,205.5C 254.5,179.5 254.5,153.5 254.5,127.5C 248.833,127.5 243.167,127.5 237.5,127.5C 237.665,130.85 237.498,134.183 237,137.5C 230.418,128.797 221.585,124.797 210.5,125.5C 210.5,96.5 210.5,67.5 210.5,38.5C 186.833,38.5 163.167,38.5 139.5,38.5C 123.5,38.5 107.5,38.5 91.5,38.5 Z"/>
    </g>
    <g>
        <path style="opacity:1" fill="#d7d7d7" d="M 91.5,38.5 C 107.5,38.5 123.5,38.5 139.5,38.5C 139.5,60.1667 139.5,81.8333 139.5,103.5C 126.53,102.577 113.53,102.244 100.5,102.5C 100.5,136.833 100.5,171.167 100.5,205.5C 106.833,205.5 113.167,205.5 119.5,205.5C 119.5,192.5 119.5,179.5 119.5,166.5C 126.868,166.683 134.201,166.35 141.5,165.5C 139.509,234.286 138.842,303.286 139.5,372.5C 129.807,374.733 123.307,371.066 120,361.5C 119.5,336.502 119.333,311.502 119.5,286.5C 113.167,286.5 106.833,286.5 100.5,286.5C 100.333,311.169 100.5,335.836 101,360.5C 102.746,376.827 111.58,386.994 127.5,391C 131.486,391.499 135.486,391.666 139.5,391.5C 139.5,418.5 139.5,445.5 139.5,472.5C 122.163,472.667 104.83,472.5 87.5,472C 65.8873,466.721 52.7207,453.221 48,431.5C 47.3333,313.833 47.3333,196.167 48,78.5C 53.7752,55.5539 68.2752,42.2206 91.5,38.5 Z"/>
    </g>
    <g>
        <path style="opacity:1" fill="#dddddd" d="M 139.5,38.5 C 163.167,38.5 186.833,38.5 210.5,38.5C 210.5,67.5 210.5,96.5 210.5,125.5C 186.808,128.026 174.141,141.193 172.5,165C 172.791,190.449 185.458,204.616 210.5,207.5C 210.168,243.671 210.502,279.671 211.5,315.5C 209.897,316.596 208.397,317.93 207,319.5C 206.503,316.854 206.336,314.187 206.5,311.5C 200.5,311.5 194.5,311.5 188.5,311.5C 188.5,346.167 188.5,380.833 188.5,415.5C 194.833,415.5 201.167,415.5 207.5,415.5C 207.333,404.495 207.5,393.495 208,382.5C 209.397,384.07 210.897,385.404 212.5,386.5C 210.508,414.814 209.841,443.481 210.5,472.5C 186.833,472.5 163.167,472.5 139.5,472.5C 139.5,445.5 139.5,418.5 139.5,391.5C 153.954,389.506 163.454,381.506 168,367.5C 169.446,340.537 169.946,313.537 169.5,286.5C 163.167,286.5 156.833,286.5 150.5,286.5C 150.667,311.502 150.5,336.502 150,361.5C 148.685,367.314 145.185,370.981 139.5,372.5C 138.842,303.286 139.509,234.286 141.5,165.5C 157.836,161.048 165.836,150.215 165.5,133C 164.756,116.094 156.089,106.26 139.5,103.5C 139.5,81.8333 139.5,60.1667 139.5,38.5 Z"/>
    </g>
    <g>
        <path style="opacity:1" fill="#dddddd" d="M 425.5,38.5 C 426.159,71.1839 425.493,103.517 423.5,135.5C 405.133,123.022 387.133,123.522 369.5,137C 354.315,153.371 352.482,171.204 364,190.5C 381.982,210.048 402.149,212.715 424.5,198.5C 425.499,289.665 425.833,380.998 425.5,472.5C 401.833,472.5 378.167,472.5 354.5,472.5C 354.5,327.833 354.5,183.167 354.5,38.5C 378.167,38.5 401.833,38.5 425.5,38.5 Z"/>
    </g>
    <g>
        <path style="opacity:1" fill="#d7d7d7" d="M 425.5,38.5 C 438.167,38.5 450.833,38.5 463.5,38.5C 487.084,42.9168 501.25,56.9168 506,80.5C 506.667,197.167 506.667,313.833 506,430.5C 500.585,453.916 486.085,467.75 462.5,472C 450.171,472.5 437.838,472.667 425.5,472.5C 425.833,380.998 425.499,289.665 424.5,198.5C 429.519,194.295 433.186,189.128 435.5,183C 428.476,182.169 421.476,182.336 414.5,183.5C 408.221,190.071 400.554,192.237 391.5,190C 383.422,187.763 378.756,182.596 377.5,174.5C 397.5,174.5 417.5,174.5 437.5,174.5C 439.526,158.899 434.859,145.899 423.5,135.5C 425.493,103.517 426.159,71.1839 425.5,38.5 Z"/>
    </g>
    <g>
        <path style="opacity:1" fill="#cacaca" d="M 3.5,90.5 C 17.1667,90.5 30.8333,90.5 44.5,90.5C 44.5,113.833 44.5,137.167 44.5,160.5C 30.8333,160.5 17.1667,160.5 3.5,160.5C 3.5,137.167 3.5,113.833 3.5,90.5 Z"/>
    </g>
    <g>
        <path style="opacity:1" fill="#cacaca" d="M 554.5,90.5 C 554.5,113.833 554.5,137.167 554.5,160.5C 539.5,160.5 524.5,160.5 509.5,160.5C 509.5,137.167 509.5,113.833 509.5,90.5C 524.5,90.5 539.5,90.5 554.5,90.5 Z"/>
    </g>
    <g>
        <path style="opacity:1" fill="#010101" d="M 139.5,103.5 C 156.089,106.26 164.756,116.094 165.5,133C 165.836,150.215 157.836,161.048 141.5,165.5C 134.201,166.35 126.868,166.683 119.5,166.5C 119.5,179.5 119.5,192.5 119.5,205.5C 113.167,205.5 106.833,205.5 100.5,205.5C 100.5,171.167 100.5,136.833 100.5,102.5C 113.53,102.244 126.53,102.577 139.5,103.5 Z"/>
    </g>
    <g>
        <path style="opacity:1" fill="#d4d4d4" d="M 119.5,120.5 C 125.925,120.13 132.258,120.63 138.5,122C 146.469,126.368 148.635,132.868 145,141.5C 141.481,145.676 136.981,147.843 131.5,148C 127.514,148.499 123.514,148.666 119.5,148.5C 119.5,139.167 119.5,129.833 119.5,120.5 Z"/>
    </g>
    <g>
        <path style="opacity:1" fill="#030303" d="M 210.5,125.5 C 221.585,124.797 230.418,128.797 237,137.5C 237.498,134.183 237.665,130.85 237.5,127.5C 243.167,127.5 248.833,127.5 254.5,127.5C 254.5,153.5 254.5,179.5 254.5,205.5C 248.833,205.5 243.167,205.5 237.5,205.5C 237.665,202.482 237.498,199.482 237,196.5C 229.943,204.313 221.11,207.98 210.5,207.5C 185.458,204.616 172.791,190.449 172.5,165C 174.141,141.193 186.808,128.026 210.5,125.5 Z"/>
    </g>
    <g>
        <path style="opacity:1" fill="#020202" d="M 266.5,213.5 C 273.313,212.509 280.313,212.175 287.5,212.5C 295.342,220.443 304.675,222.609 315.5,219C 318.902,217.6 321.736,215.433 324,212.5C 326.449,207.042 327.782,201.375 328,195.5C 319.053,205.483 307.887,209.316 294.5,207C 274.253,200.228 264.253,186.061 264.5,164.5C 266.337,141.164 278.837,128.164 302,125.5C 312.447,125.09 321.113,128.756 328,136.5C 328.498,133.518 328.665,130.518 328.5,127.5C 334.5,127.5 340.5,127.5 346.5,127.5C 346.667,151.836 346.5,176.169 346,200.5C 344.298,221.868 332.798,233.702 311.5,236C 291.271,238.553 276.271,231.053 266.5,213.5 Z"/>
    </g>
    <g>
        <path style="opacity:1" fill="#030303" d="M 423.5,135.5 C 434.859,145.899 439.526,158.899 437.5,174.5C 417.5,174.5 397.5,174.5 377.5,174.5C 378.756,182.596 383.422,187.763 391.5,190C 400.554,192.237 408.221,190.071 414.5,183.5C 421.476,182.336 428.476,182.169 435.5,183C 433.186,189.128 429.519,194.295 424.5,198.5C 402.149,212.715 381.982,210.048 364,190.5C 352.482,171.204 354.315,153.371 369.5,137C 387.133,123.522 405.133,123.022 423.5,135.5 Z"/>
    </g>
    <g>
        <path style="opacity:1" fill="#e1e1e1" d="M 299.5,142.5 C 319.842,142.157 329.009,152.157 327,172.5C 322.383,187.946 312.216,193.446 296.5,189C 287.523,184.054 283.19,176.388 283.5,166C 283.538,154.389 288.871,146.556 299.5,142.5 Z"/>
    </g>
    <g>
        <path style="opacity:1" fill="#dedede" d="M 208.5,142.5 C 229.974,142.401 239.141,153.068 236,174.5C 231.236,187.302 222.069,192.469 208.5,190C 194.863,184.905 189.363,175.072 192,160.5C 194.619,151.719 200.119,145.719 208.5,142.5 Z"/>
    </g>
    <g>
        <path style="opacity:1" fill="#d9d9d9" d="M 391.5,143.5 C 404.406,141.286 413.739,145.953 419.5,157.5C 405.167,158.833 390.833,158.833 376.5,157.5C 379.635,150.694 384.635,146.027 391.5,143.5 Z"/>
    </g>
    <g>
        <path style="opacity:1" fill="#c4c4c4" d="M 3.5,160.5 C 17.1667,160.5 30.8333,160.5 44.5,160.5C 44.5,180.5 44.5,200.5 44.5,220.5C 30.8333,220.5 17.1667,220.5 3.5,220.5C 3.5,200.5 3.5,180.5 3.5,160.5 Z"/>
    </g>
    <g>
        <path style="opacity:1" fill="#c4c4c4" d="M 509.5,160.5 C 524.5,160.5 539.5,160.5 554.5,160.5C 554.5,180.5 554.5,200.5 554.5,220.5C 539.5,220.5 524.5,220.5 509.5,220.5C 509.5,200.5 509.5,180.5 509.5,160.5 Z"/>
    </g>
    <g>
        <path style="opacity:1" fill="#868686" d="M 287.5,212.5 C 280.313,212.175 273.313,212.509 266.5,213.5C 265.957,213.44 265.624,213.107 265.5,212.5C 272.99,211.181 280.323,211.181 287.5,212.5 Z"/>
    </g>
    <g>
        <path style="opacity:1" fill="#bebebe" d="M 3.5,220.5 C 17.1667,220.5 30.8333,220.5 44.5,220.5C 44.5,240.167 44.5,259.833 44.5,279.5C 30.8333,279.5 17.1667,279.5 3.5,279.5C 3.5,259.833 3.5,240.167 3.5,220.5 Z"/>
    </g>
    <g>
        <path style="opacity:1" fill="#bebebe" d="M 509.5,220.5 C 524.5,220.5 539.5,220.5 554.5,220.5C 554.5,240.167 554.5,259.833 554.5,279.5C 539.5,279.5 524.5,279.5 509.5,279.5C 509.5,259.833 509.5,240.167 509.5,220.5 Z"/>
    </g>
    <g>
        <path style="opacity:1" fill="#b8b8b8" d="M 3.5,55.5 C 3.5,67.1667 3.5,78.8333 3.5,90.5C 3.5,113.833 3.5,137.167 3.5,160.5C 3.5,180.5 3.5,200.5 3.5,220.5C 3.5,240.167 3.5,259.833 3.5,279.5C 17.1667,279.5 30.8333,279.5 44.5,279.5C 44.5,299.5 44.5,319.5 44.5,339.5C 30.8333,339.5 17.1667,339.5 3.5,339.5C 3.82904,325.656 3.49571,311.99 2.5,298.5C 2.16736,217.332 2.50069,136.332 3.5,55.5 Z"/>
    </g>
    <g>
        <path style="opacity:1" fill="#b8b8b8" d="M 509.5,279.5 C 524.5,279.5 539.5,279.5 554.5,279.5C 554.5,299.5 554.5,319.5 554.5,339.5C 539.5,339.5 524.5,339.5 509.5,339.5C 509.5,319.5 509.5,299.5 509.5,279.5 Z"/>
    </g>
    <g>
        <path style="opacity:1" fill="#010101" d="M 139.5,372.5 C 145.185,370.981 148.685,367.314 150,361.5C 150.5,336.502 150.667,311.502 150.5,286.5C 156.833,286.5 163.167,286.5 169.5,286.5C 169.946,313.537 169.446,340.537 168,367.5C 163.454,381.506 153.954,389.506 139.5,391.5C 135.486,391.666 131.486,391.499 127.5,391C 111.58,386.994 102.746,376.827 101,360.5C 100.5,335.836 100.333,311.169 100.5,286.5C 106.833,286.5 113.167,286.5 119.5,286.5C 119.333,311.502 119.5,336.502 120,361.5C 123.307,371.066 129.807,374.733 139.5,372.5 Z"/>
    </g>
    <g>
        <path style="opacity:1" fill="#020202" d="M 212.5,386.5 C 210.897,385.404 209.397,384.07 208,382.5C 207.5,393.495 207.333,404.495 207.5,415.5C 201.167,415.5 194.833,415.5 188.5,415.5C 188.5,380.833 188.5,346.167 188.5,311.5C 194.5,311.5 200.5,311.5 206.5,311.5C 206.336,314.187 206.503,316.854 207,319.5C 208.397,317.93 209.897,316.596 211.5,315.5C 214.194,313.486 217.194,311.986 220.5,311C 243.881,306.438 259.714,315.271 268,337.5C 271.999,355.013 267.832,370.18 255.5,383C 241.783,392.606 227.45,393.773 212.5,386.5 Z"/>
    </g>
    <g>
        <path style="opacity:1" fill="#dfdfdf" d="M 223.5,326.5 C 243.081,326.918 251.915,336.918 250,356.5C 243.928,373.289 232.761,378.122 216.5,371C 206.29,361.963 203.79,351.13 209,338.5C 212.541,332.78 217.374,328.78 223.5,326.5 Z"/>
    </g>
    <g>
        <path style="opacity:1" fill="#b1b1b1" d="M 3.5,339.5 C 17.1667,339.5 30.8333,339.5 44.5,339.5C 44.5,362.833 44.5,386.167 44.5,409.5C 30.8333,409.5 17.1667,409.5 3.5,409.5C 3.5,386.167 3.5,362.833 3.5,339.5 Z"/>
    </g>
    <g>
        <path style="opacity:1" fill="#b1b1b1" d="M 509.5,339.5 C 524.5,339.5 539.5,339.5 554.5,339.5C 554.5,362.833 554.5,386.167 554.5,409.5C 539.5,409.5 524.5,409.5 509.5,409.5C 509.5,386.167 509.5,362.833 509.5,339.5 Z"/>
    </g>
    <g>
        <path style="opacity:1" fill="#ababab" d="M 3.5,409.5 C 17.1667,409.5 30.8333,409.5 44.5,409.5C 44.3162,417.875 44.8162,426.208 46,434.5C 50.1953,449.178 58.6953,460.511 71.5,468.5C 48.8333,468.5 26.1667,468.5 3.5,468.5C 3.5,448.833 3.5,429.167 3.5,409.5 Z"/>
    </g>
    <g>
        <path style="opacity:1" fill="#aaaaaa" d="M 554.5,56.5 C 555.832,193.736 555.832,331.069 554.5,468.5C 530.5,468.5 506.5,468.5 482.5,468.5C 499.408,458.035 508.075,442.702 508.5,422.5C 509.485,418.366 509.818,414.032 509.5,409.5C 524.5,409.5 539.5,409.5 554.5,409.5C 554.5,386.167 554.5,362.833 554.5,339.5C 554.5,319.5 554.5,299.5 554.5,279.5C 554.5,259.833 554.5,240.167 554.5,220.5C 554.5,200.5 554.5,180.5 554.5,160.5C 554.5,137.167 554.5,113.833 554.5,90.5C 554.5,79.1667 554.5,67.8333 554.5,56.5 Z"/>
    </g>
    <g>
        <path style="opacity:1" fill="#a5a5a5" d="M 2.5,298.5 C 3.49571,311.99 3.82904,325.656 3.5,339.5C 3.5,362.833 3.5,386.167 3.5,409.5C 3.5,429.167 3.5,448.833 3.5,468.5C 26.1667,468.5 48.8333,468.5 71.5,468.5C 77.4961,471.555 83.8294,473.721 90.5,475C 214.5,475.667 338.5,475.667 462.5,475C 469.382,473.447 476.049,471.281 482.5,468.5C 506.5,468.5 530.5,468.5 554.5,468.5C 549.976,498.191 532.976,516.024 503.5,522C 353.167,522.667 202.833,522.667 52.5,522C 25.1663,515.332 8.66626,498.165 3,470.5C 2.50001,413.168 2.33334,355.834 2.5,298.5 Z"/>
    </g>
</svg>
